<svg xmlns="http://www.w3.org/2000/svg" class="h-5 w-5" viewBox="0 0 20 20" fill="#ffffff">
<path fill-rule="evenodd" d="M10 0a10 10 0 0 0-3.16 19.49c.5.09.68-.22.68-.48l-.01-1.7c-2.78.61-3.37-1.34-3.37-1.34-.46-1.17-1.12-1.48-1.12-1.48-.91-.62.07-.61.07-.61 1 .07 1.53 1.03 1.53 1.03.89 1.52 2.34 1.08 2.91.83.09-.65.35-1.08.64-1.33-2.25-.26-4.62-1.13-4.62-5a3.9 3.9 0 0 1 1.04-2.71 3.6 3.6 0 0 1 .1-2.66s.84-.27 2.75 1.03a9.48 9.48 0 0 1 5 0c1.91-1.3 2.75-1.03 2.75-1.03a3.6 3.6 0 0 1 .1 2.66 3.9 3.9 0 0 1 1.04 2.71c0 3.88-2.38 4.73-4.64 5 .29.32.54.94.54 1.89l-.01 2.8c0 .26.18.57.69.47A10 10 0 0 0 10 0" />
</svg>